<?xml version="1.0" encoding="UTF-8" standalone="no"?>
<svg
   width="180"
   height="19"
   viewBox="0 0 180 19"
   version="1.1"
   id="svg198"
   sodipodi:docname="logo-app.svg"
   inkscape:version="1.2.2 (732a01da63, 2022-12-09)"
   inkscape:export-filename="logo-app.png"
   inkscape:export-xdpi="96"
   inkscape:export-ydpi="96"
   xmlns:inkscape="http://www.inkscape.org/namespaces/inkscape"
   xmlns:sodipodi="http://sodipodi.sourceforge.net/DTD/sodipodi-0.dtd"
   xmlns="http://www.w3.org/2000/svg"
   xmlns:svg="http://www.w3.org/2000/svg">
  <defs
     id="defs202">
    <inkscape:path-effect
       effect="bspline"
       id="path-effect2746"
       is_visible="true"
       lpeversion="1"
       weight="33.333333"
       steps="2"
       helper_size="0"
       apply_no_weight="true"
       apply_with_weight="true"
       only_selected="false" />
  </defs>
  <sodipodi:namedview
     id="namedview200"
     pagecolor="#ffffff"
     bordercolor="#000000"
     borderopacity="0.25"
     inkscape:showpageshadow="2"
     inkscape:pageopacity="0.0"
     inkscape:pagecheckerboard="0"
     inkscape:deskcolor="#d1d1d1"
     showgrid="false"
     inkscape:zoom="2.9944444"
     inkscape:cx="70.296846"
     inkscape:cy="9.851577"
     inkscape:window-width="1920"
     inkscape:window-height="1001"
     inkscape:window-x="-9"
     inkscape:window-y="-9"
     inkscape:window-maximized="1"
     inkscape:current-layer="layer2" />
  <g
     inkscape:groupmode="layer"
     id="layer1"
     inkscape:label="Background"
     style="display:none">
    <rect
       style="fill:#1a1a1a;stroke:#ffffff;stroke-width:0.377953"
       id="rect865"
       width="180"
       height="19"
       x="0.1889765"
       y="0.1889765" />
  </g>
  <g
     inkscape:groupmode="layer"
     id="layer2"
     inkscape:label="Layer 1">
    <g
       fill="none"
       fill-rule="nonzero"
       id="g196"
       style="display:none">
      <ellipse
         cx="9.7220001"
         cy="9.5"
         fill="#ffffff"
         rx="9.7220001"
         ry="9.5"
         id="ellipse182" />
      <g
         fill="#ffffff"
         id="g186"
         style="display:inline">
        <path
           d="M 41.683,2.341 V 17.806 H 39.064 V 6.218 L 34.49,17.812 H 32.208 L 27.608,6.218 V 17.812 H 25.013 V 2.342 h 3.143 L 33.393,14.688 38.54,2.341 Z M 52.748,6.218 A 4.446,4.446 0 0 1 54.458,8.4 V 5.547 h 2.594 v 12.259 h -2.594 v -2.847 a 4.472,4.472 0 0 1 -1.71,2.182 c -0.807,0.547 -1.776,0.824 -2.914,0.824 -1.096,0 -2.07,-0.253 -2.926,-0.76 -0.86,-0.505 -1.529,-1.229 -2.016,-2.181 -0.488,-0.948 -0.729,-2.071 -0.729,-3.36 0,-1.276 0.241,-2.388 0.729,-3.335 0.487,-0.947 1.155,-1.676 2.016,-2.182 0.855,-0.506 1.836,-0.759 2.926,-0.759 1.138,0.006 2.113,0.277 2.914,0.83 z m -4.882,2.476 c -0.693,0.718 -1.036,1.712 -1.036,2.97 0,1.26 0.343,2.254 1.036,2.971 0.692,0.718 1.613,1.077 2.769,1.077 0.728,0 1.378,-0.165 1.956,-0.5 A 3.63,3.63 0 0 0 53.958,13.8 c 0.331,-0.606 0.5,-1.318 0.5,-2.135 0,-0.8 -0.169,-1.512 -0.5,-2.124 A 3.584,3.584 0 0 0 52.591,8.118 c -0.578,-0.336 -1.228,-0.5 -1.956,-0.5 -1.156,0 -2.077,0.358 -2.77,1.076 z m 18.614,6.912 v 2.2 h -1.596 c -1.336,0 -2.348,-0.318 -3.04,-0.947 -0.692,-0.63 -1.035,-1.683 -1.035,-3.147 V 7.706 h -1.8 V 5.547 h 1.8 V 2.5 h 2.618 v 3.047 h 3.029 v 2.159 h -3.029 v 6.053 c 0,0.7 0.133,1.176 0.398,1.447 0.265,0.265 0.734,0.4 1.402,0.4 z m 14.008,-3.43 h -9.656 c 0.048,1.26 0.403,2.195 1.072,2.806 0.668,0.606 1.493,0.912 2.48,0.912 0.867,0 1.595,-0.218 2.197,-0.647 0.602,-0.43 0.97,-1 1.102,-1.712 h 2.775 a 5.288,5.288 0 0 1 -1.047,2.294 c -0.53,0.665 -1.222,1.189 -2.071,1.571 -0.849,0.376 -1.8,0.565 -2.848,0.565 -1.216,0 -2.287,-0.253 -3.22,-0.76 a 5.428,5.428 0 0 1 -2.198,-2.181 c -0.53,-0.948 -0.794,-2.071 -0.794,-3.36 0,-1.276 0.264,-2.388 0.794,-3.335 a 5.465,5.465 0 0 1 2.198,-2.182 c 0.933,-0.506 2.004,-0.759 3.22,-0.759 1.228,0 2.306,0.247 3.221,0.747 0.921,0.5 1.625,1.177 2.12,2.047 0.493,0.87 0.74,1.836 0.74,2.906 a 5.34,5.34 0 0 1 -0.085,1.088 z m -2.95,-3.17 a 2.89,2.89 0 0 0 -1.276,-1.2 4.026,4.026 0 0 0 -1.764,-0.388 c -1.017,0 -1.866,0.306 -2.552,0.911 -0.68,0.606 -1.054,1.506 -1.114,2.695 h 7.128 c 0.03,-0.8 -0.108,-1.477 -0.422,-2.018 z m 9.964,-2.959 c 0.788,-0.465 1.697,-0.7 2.733,-0.7 v 2.759 h -0.777 c -1.138,0 -2.053,0.27 -2.745,0.812 -0.692,0.54 -1.035,1.435 -1.035,2.682 v 6.206 H 83.083 V 5.547 h 2.595 v 2.406 a 4.8,4.8 0 0 1 1.824,-1.906 z m 4.756,-5.129 c 0.3,-0.283 0.704,-0.424 1.204,-0.424 0.5,0 0.909,0.141 1.216,0.424 0.313,0.282 0.47,0.635 0.47,1.07 0,0.43 -0.157,0.777 -0.47,1.047 -0.313,0.265 -0.717,0.4 -1.216,0.4 -0.5,0 -0.903,-0.135 -1.204,-0.4 C 91.957,2.771 91.8,2.418 91.8,1.988 91.806,1.558 91.957,1.2 92.258,0.918 Z m 2.51,4.63 v 12.258 h -2.6 V 5.547 h 2.6 z m 11.089,0.67 a 4.446,4.446 0 0 1 1.71,2.182 V 5.547 h 2.594 v 12.259 h -2.594 v -2.847 a 4.472,4.472 0 0 1 -1.71,2.182 c -0.807,0.547 -1.776,0.824 -2.914,0.824 -1.096,0 -2.07,-0.253 -2.926,-0.76 -0.86,-0.505 -1.529,-1.229 -2.016,-2.181 -0.488,-0.948 -0.729,-2.071 -0.729,-3.36 0,-1.276 0.241,-2.388 0.729,-3.335 0.487,-0.947 1.156,-1.676 2.016,-2.182 0.855,-0.506 1.837,-0.759 2.926,-0.759 1.138,0.006 2.107,0.277 2.914,0.83 z m -4.888,2.476 c -0.693,0.718 -1.036,1.712 -1.036,2.97 0,1.26 0.343,2.254 1.036,2.971 0.692,0.718 1.613,1.077 2.769,1.077 0.728,0 1.378,-0.165 1.956,-0.5 a 3.63,3.63 0 0 0 1.367,-1.412 c 0.331,-0.606 0.5,-1.318 0.5,-2.135 0,-0.8 -0.169,-1.512 -0.5,-2.124 a 3.584,3.584 0 0 0 -1.367,-1.423 c -0.578,-0.336 -1.228,-0.5 -1.956,-0.5 -1.156,0 -2.077,0.358 -2.77,1.076 z M 115.874,1.341 V 17.806 H 113.28 V 1.34 Z m 21.281,12.741 c -0.662,1.177 -1.625,2.094 -2.89,2.747 -1.27,0.653 -2.78,0.977 -4.545,0.977 h -5.376 V 2.1 h 5.376 c 1.764,0 3.275,0.324 4.546,0.97 1.27,0.648 2.233,1.554 2.89,2.724 0.661,1.17 0.992,2.553 0.992,4.141 0,1.583 -0.33,2.965 -0.993,4.147 z m -3.196,-0.035 c 1.029,-0.976 1.547,-2.353 1.547,-4.118 0,-1.764 -0.518,-3.135 -1.547,-4.117 -1.036,-0.977 -2.51,-1.47 -4.443,-1.47 h -2.57 v 11.17 h 2.57 c 1.926,0.006 3.407,-0.483 4.443,-1.465 z m 14.755,-7.829 a 4.446,4.446 0 0 1 1.71,2.182 V 5.547 h 2.594 v 12.259 h -2.595 v -2.847 a 4.438,4.438 0 0 1 -1.71,2.182 c -0.806,0.547 -1.775,0.824 -2.913,0.824 -1.096,0 -2.07,-0.253 -2.926,-0.76 -0.855,-0.505 -1.529,-1.229 -2.016,-2.181 -0.488,-0.948 -0.729,-2.071 -0.729,-3.36 0,-1.276 0.24,-2.388 0.729,-3.335 0.487,-0.947 1.155,-1.676 2.016,-2.182 0.855,-0.506 1.836,-0.759 2.926,-0.759 1.138,0.006 2.107,0.277 2.914,0.83 z m -4.889,2.476 c -0.692,0.718 -1.035,1.712 -1.035,2.97 0,1.26 0.343,2.254 1.035,2.971 0.693,0.718 1.614,1.077 2.77,1.077 0.728,0 1.378,-0.165 1.956,-0.5 a 3.63,3.63 0 0 0 1.367,-1.412 c 0.33,-0.606 0.5,-1.318 0.5,-2.135 0,-0.8 -0.17,-1.512 -0.5,-2.124 a 3.544,3.544 0 0 0 -1.367,-1.423 c -0.578,-0.336 -1.228,-0.5 -1.956,-0.5 -1.156,0 -2.077,0.358 -2.77,1.076 z m 19.975,-2.2 c 0.891,0.735 1.433,1.718 1.625,2.947 h -2.462 c -0.108,-0.665 -0.397,-1.206 -0.879,-1.612 -0.475,-0.405 -1.113,-0.611 -1.902,-0.611 -0.65,0 -1.156,0.153 -1.517,0.458 -0.355,0.306 -0.536,0.718 -0.536,1.236 0,0.388 0.127,0.7 0.385,0.935 0.26,0.235 0.578,0.424 0.97,0.559 0.39,0.135 0.939,0.282 1.65,0.447 0.938,0.206 1.703,0.423 2.287,0.647 a 3.755,3.755 0 0 1 1.505,1.059 c 0.415,0.482 0.626,1.141 0.626,1.97 0,1.024 -0.397,1.853 -1.198,2.495 -0.795,0.635 -1.872,0.958 -3.22,0.958 -1.566,0 -2.83,-0.358 -3.794,-1.07 -0.963,-0.712 -1.547,-1.706 -1.74,-2.983 h 2.53 c 0.077,0.665 0.378,1.212 0.908,1.624 0.53,0.418 1.228,0.623 2.095,0.623 0.62,0 1.114,-0.158 1.469,-0.476 a 1.56,1.56 0 0 0 0.536,-1.212 c 0,-0.43 -0.139,-0.77 -0.41,-1.023 a 2.826,2.826 0 0 0 -1.023,-0.589 c -0.41,-0.14 -0.97,-0.288 -1.686,-0.435 a 19.277,19.277 0 0 1 -2.221,-0.623 3.455,3.455 0 0 1 -1.457,-1.012 c -0.403,-0.465 -0.602,-1.1 -0.602,-1.9 0,-1.035 0.397,-1.882 1.198,-2.524 0.8,-0.64 1.902,-0.97 3.311,-0.97 1.481,-0.018 2.661,0.347 3.552,1.082 z M 178.682,6.73 C 179.561,7.647 180,8.965 180,10.67 v 7.142 h -2.595 v -6.877 c 0,-1.1 -0.289,-1.947 -0.867,-2.547 -0.577,-0.6 -1.366,-0.9 -2.365,-0.9 -1.036,0 -1.86,0.324 -2.48,0.97 -0.62,0.648 -0.934,1.59 -0.934,2.836 v 6.518 h -2.594 V 1.342 h 2.594 v 6.9 c 0.331,-0.918 0.897,-1.63 1.686,-2.136 0.788,-0.506 1.697,-0.759 2.733,-0.759 1.457,0 2.625,0.459 3.504,1.382 z"
           id="path184" />
      </g>
      <path
         fill="#008cce"
         d="M 5.165,5.047 H 9.728 V 9.506 H 5.165 Z"
         id="path188" />
      <path
         fill="#7b63ab"
         d="m 9.722,5.047 h 4.563 V 9.506 H 9.722 Z"
         id="path190" />
      <path
         fill="#ee334a"
         d="M 9.722,13.953 H 7.868 c -1.499,0 -2.709,-1.182 -2.709,-2.647 V 9.494 h 4.563 z"
         id="path192" />
      <path
         fill="#00ad4d"
         d="M 11.83,13.953 H 9.721 V 9.494 h 4.564 v 2.059 c -0.006,1.33 -1.102,2.4 -2.457,2.4 z"
         id="path194" />
    </g>
    <text
       xml:space="preserve"
       style="font-size:20.5139px;font-family:Montserrat;-inkscape-font-specification:Montserrat;fill:#1a1a1a;stroke:#ffffff;stroke-width:0.387664"
       x="24.319801"
       y="14.359723"
       id="text930"
       transform="scale(0.97494936,1.0256943)"><tspan
         sodipodi:role="line"
         id="tspan928"
         x="24.319801"
         y="14.359723"
         style="font-style:normal;font-variant:normal;font-weight:800;font-stretch:normal;font-family:Montserrat;-inkscape-font-specification:'Montserrat Ultra-Bold';fill:#ffffff;stroke:none;stroke-width:0.387664">PayRoll App</tspan></text>
    <rect
       style="display:none;fill:#808080;stroke:none;stroke-width:0.320947"
       id="rect1292"
       width="19"
       height="19"
       x="0"
       y="0" />
    <circle
       style="display:none;fill:#ff0000;stroke:none;stroke-width:0.255374"
       id="path1497"
       cx="9.8515778"
       cy="9.5"
       r="8.348793" />
    <g
       id="g2589"
       transform="matrix(1,0,0,1.0344444,-17.699444,40.072724)">
      <rect
         style="opacity:1;fill:#8cd4f0;fill-opacity:1;stroke:none;stroke-width:0.377953"
         id="rect1802"
         width="18.367348"
         height="18.367348"
         x="17.699444"
         y="-38.738403" />
      <rect
         style="opacity:0.741791;fill:none;fill-opacity:1;stroke:#ffffff;stroke-width:0.309234;stroke-opacity:1"
         id="rect1858"
         width="15.02783"
         height="15.02783"
         x="19.369204"
         y="-37.068645" />
      <circle
         style="opacity:1;fill:#ff0000;fill-opacity:1;stroke:none;stroke-width:0.377953"
         id="path1856"
         cx="29.053804"
         cy="-27.384047"
         r="2.5046382" />
    </g>
    <g
       id="g3022"
       transform="matrix(0.32326388,0,0,0.32326388,1.0795446,27.852269)">
      <rect
         style="opacity:1;fill:#71c0ff;fill-opacity:1;stroke:none;stroke-width:0.209182;stroke-opacity:1"
         id="rect3010"
         width="58.775513"
         height="58.775513"
         x="-3.3395152"
         y="-86.159546" />
      <text
         xml:space="preserve"
         style="font-style:normal;font-variant:normal;font-weight:800;font-stretch:normal;font-size:20px;font-family:Montserrat;-inkscape-font-specification:'Montserrat Ultra-Bold';opacity:1;fill:#ffffff;fill-opacity:1;stroke:none;stroke-width:0.377953;stroke-opacity:1"
         x="27.884972"
         y="-69.387756"
         id="text2667"><tspan
           sodipodi:role="line"
           id="tspan2665"
           x="27.884972"
           y="-69.387756">1</tspan></text>
      <text
         xml:space="preserve"
         style="font-style:normal;font-variant:normal;font-weight:800;font-stretch:normal;font-size:20px;font-family:Montserrat;-inkscape-font-specification:'Montserrat Ultra-Bold';opacity:1;fill:#ffffff;fill-opacity:1;stroke:none;stroke-width:0.377953;stroke-opacity:1"
         x="27.884972"
         y="-49.387756"
         id="text2671"><tspan
           sodipodi:role="line"
           id="tspan2669"
           x="27.884972"
           y="-49.387756">1</tspan></text>
      <text
         xml:space="preserve"
         style="font-style:normal;font-variant:normal;font-weight:800;font-stretch:normal;font-size:20px;font-family:Montserrat;-inkscape-font-specification:'Montserrat Ultra-Bold';opacity:1;fill:#ffffff;fill-opacity:1;stroke:#ffffff;stroke-width:0.377953;stroke-opacity:1"
         x="27.884972"
         y="-29.387756"
         id="text2675"><tspan
           sodipodi:role="line"
           id="tspan2673"
           x="27.884972"
           y="-29.387756">2</tspan></text>
      <path
         style="opacity:1;fill:none;fill-opacity:1;stroke:#ff0000;stroke-width:0.377953;stroke-opacity:1"
         d="m 2.83859,-46.916512 c 0,0 45.083488,0 45.083488,0"
         id="path2744"
         inkscape:path-effect="#path-effect2746"
         inkscape:original-d="M 2.83859,-46.916512 H 47.922078" />
      <text
         xml:space="preserve"
         style="font-style:normal;font-variant:normal;font-weight:800;font-stretch:normal;font-size:20px;font-family:Montserrat;-inkscape-font-specification:'Montserrat Ultra-Bold';opacity:1;mix-blend-mode:lighten;fill:#ffffff;fill-opacity:1;stroke:none;stroke-width:0.377953;stroke-opacity:1"
         x="39.072353"
         y="-47.0872"
         id="text2802"><tspan
           sodipodi:role="line"
           id="tspan2800"
           x="39.072353"
           y="-47.0872"
           style="fill:#ffffff;fill-opacity:1;stroke:none;stroke-opacity:1">+</tspan></text>
    </g>
  </g>
</svg>
